<mxfile host="app.diagrams.net" agent="Mozilla/5.0 (X11; Linux x86_64) AppleWebKit/537.36 (KHTML, like Gecko) Chrome/138.0.0.0 Safari/537.36" version="28.2.5">
  <diagram name="Page-1" id="iodKQMO5uXjkdH3vZC42">
    <mxGraphModel dx="1233" dy="681" grid="1" gridSize="10" guides="1" tooltips="1" connect="1" arrows="1" fold="1" page="1" pageScale="1" pageWidth="100" pageHeight="100" math="0" shadow="0">
      <root>
        <mxCell id="0" />
        <mxCell id="1" parent="0" />
        <mxCell id="hHttcmBeRxNO83OjTy9z-1" style="edgeStyle=orthogonalEdgeStyle;rounded=0;orthogonalLoop=1;jettySize=auto;html=1;fillColor=#f5f5f5;strokeColor=#666666;fontColor=#000000;endArrow=open;endFill=0;endSize=9;dashed=1;strokeWidth=1;shadow=1;flowAnimation=0;dashPattern=1 1;fontFamily=Helvetica;" edge="1" parent="1" source="hHttcmBeRxNO83OjTy9z-2" target="hHttcmBeRxNO83OjTy9z-8">
          <mxGeometry relative="1" as="geometry" />
        </mxCell>
        <mxCell id="hHttcmBeRxNO83OjTy9z-2" value="&lt;font style=&quot;font-size: 12px;&quot;&gt;&lt;b&gt;Raw&lt;/b&gt;&amp;nbsp;&lt;/font&gt;&lt;div&gt;&lt;font style=&quot;font-size: 12px;&quot;&gt;precipitation data&lt;br&gt;collection&lt;/font&gt;&lt;/div&gt;" style="rounded=1;whiteSpace=wrap;html=1;arcSize=19;fontSize=13;fillColor=#f8cecc;strokeColor=#b85450;shadow=1;glass=0;fontFamily=Helvetica;" vertex="1" parent="1">
          <mxGeometry x="70" y="75" width="110" height="50" as="geometry" />
        </mxCell>
        <mxCell id="hHttcmBeRxNO83OjTy9z-3" style="edgeStyle=orthogonalEdgeStyle;rounded=0;orthogonalLoop=1;jettySize=auto;html=1;entryX=0.5;entryY=1;entryDx=0;entryDy=0;fillColor=#f5f5f5;strokeColor=#666666;fontColor=#000000;endArrow=open;endFill=0;endSize=9;dashed=1;strokeWidth=1;shadow=1;flowAnimation=0;dashPattern=1 1;fontFamily=Helvetica;" edge="1" parent="1" source="hHttcmBeRxNO83OjTy9z-6" target="hHttcmBeRxNO83OjTy9z-10">
          <mxGeometry relative="1" as="geometry" />
        </mxCell>
        <mxCell id="hHttcmBeRxNO83OjTy9z-4" value="" style="edgeStyle=orthogonalEdgeStyle;rounded=0;orthogonalLoop=1;jettySize=auto;html=1;fillColor=#f5f5f5;strokeColor=#666666;endArrow=open;endFill=0;strokeWidth=1;endSize=9;dashed=1;shadow=1;flowAnimation=0;dashPattern=1 1;fontFamily=Helvetica;" edge="1" parent="1" source="hHttcmBeRxNO83OjTy9z-6" target="hHttcmBeRxNO83OjTy9z-17">
          <mxGeometry relative="1" as="geometry" />
        </mxCell>
        <mxCell id="hHttcmBeRxNO83OjTy9z-5" style="edgeStyle=orthogonalEdgeStyle;rounded=0;orthogonalLoop=1;jettySize=auto;html=1;entryX=0.5;entryY=0;entryDx=0;entryDy=0;fillColor=#f5f5f5;strokeColor=#666666;endArrow=open;endFill=0;endSize=9;dashed=1;strokeWidth=1;shadow=1;flowAnimation=0;dashPattern=1 1;fontFamily=Helvetica;" edge="1" parent="1" source="hHttcmBeRxNO83OjTy9z-6" target="hHttcmBeRxNO83OjTy9z-9">
          <mxGeometry relative="1" as="geometry" />
        </mxCell>
        <mxCell id="hHttcmBeRxNO83OjTy9z-6" value="&lt;b&gt;&lt;font style=&quot;font-size: 12px;&quot;&gt;Serially complete station dataset&lt;/font&gt;&lt;/b&gt;" style="rounded=1;whiteSpace=wrap;html=1;arcSize=19;fontSize=13;fillColor=#dae8fc;strokeColor=#6c8ebf;shadow=1;fontFamily=Helvetica;" vertex="1" parent="1">
          <mxGeometry x="190" y="160" width="110" height="50" as="geometry" />
        </mxCell>
        <mxCell id="hHttcmBeRxNO83OjTy9z-7" style="edgeStyle=orthogonalEdgeStyle;rounded=0;orthogonalLoop=1;jettySize=auto;html=1;entryX=0;entryY=0.5;entryDx=0;entryDy=0;fillColor=#f5f5f5;strokeColor=#666666;fontColor=#000000;endArrow=open;endFill=0;endSize=9;dashed=1;strokeWidth=1;shadow=1;flowAnimation=0;dashPattern=1 1;fontFamily=Helvetica;" edge="1" parent="1" source="hHttcmBeRxNO83OjTy9z-8" target="hHttcmBeRxNO83OjTy9z-6">
          <mxGeometry relative="1" as="geometry" />
        </mxCell>
        <mxCell id="hHttcmBeRxNO83OjTy9z-8" value="&lt;i&gt;QC, &lt;br&gt;gap-filling, &lt;br&gt;..., algorithms&lt;/i&gt;" style="whiteSpace=wrap;html=1;aspect=fixed;fontSize=10;fillColor=#e1d5e7;strokeColor=#9673a6;rounded=1;align=center;shadow=1;fontFamily=Helvetica;" vertex="1" parent="1">
          <mxGeometry x="95" y="155" width="60" height="60" as="geometry" />
        </mxCell>
        <mxCell id="hHttcmBeRxNO83OjTy9z-9" value="&lt;i&gt;Statistical-based evaluation&lt;/i&gt;" style="whiteSpace=wrap;html=1;aspect=fixed;fontSize=10;fillColor=#f5f5f5;fontColor=#000000;strokeColor=#666666;rounded=1;shadow=1;fontFamily=Helvetica;" vertex="1" parent="1">
          <mxGeometry x="212.5" y="235" width="65" height="65" as="geometry" />
        </mxCell>
        <mxCell id="hHttcmBeRxNO83OjTy9z-10" value="&lt;i&gt;Process-based evaluation&lt;/i&gt;" style="whiteSpace=wrap;html=1;aspect=fixed;fontSize=10;fillColor=#f5f5f5;fontColor=#000000;strokeColor=#666666;rounded=1;shadow=1;fontFamily=Helvetica;" vertex="1" parent="1">
          <mxGeometry x="215" y="75" width="60" height="60" as="geometry" />
        </mxCell>
        <mxCell id="hHttcmBeRxNO83OjTy9z-12" style="edgeStyle=orthogonalEdgeStyle;rounded=0;orthogonalLoop=1;jettySize=auto;html=1;entryX=0.5;entryY=1;entryDx=0;entryDy=0;fillColor=#f5f5f5;strokeColor=#666666;fontColor=#000000;endArrow=open;endFill=0;strokeWidth=1;endSize=9;dashed=1;shadow=1;flowAnimation=0;dashPattern=1 1;fontFamily=Helvetica;" edge="1" parent="1" source="hHttcmBeRxNO83OjTy9z-13" target="hHttcmBeRxNO83OjTy9z-15">
          <mxGeometry relative="1" as="geometry" />
        </mxCell>
        <mxCell id="hHttcmBeRxNO83OjTy9z-22" style="edgeStyle=orthogonalEdgeStyle;rounded=0;orthogonalLoop=1;jettySize=auto;html=1;entryX=0.5;entryY=0;entryDx=0;entryDy=0;strokeColor=#666666;strokeWidth=1;align=center;verticalAlign=middle;fontFamily=Helvetica;fontSize=11;fontColor=#000000;labelBackgroundColor=default;endArrow=open;endFill=0;endSize=9;fillColor=#f5f5f5;dashed=1;shadow=1;flowAnimation=0;dashPattern=1 1;" edge="1" parent="1" source="hHttcmBeRxNO83OjTy9z-13" target="hHttcmBeRxNO83OjTy9z-21">
          <mxGeometry relative="1" as="geometry" />
        </mxCell>
        <mxCell id="hHttcmBeRxNO83OjTy9z-13" value="&lt;b&gt;&lt;font style=&quot;font-size: 12px;&quot;&gt;Gridded &lt;br&gt;dataset&lt;/font&gt;&lt;/b&gt;" style="rounded=1;whiteSpace=wrap;html=1;arcSize=19;fontSize=13;fillColor=#dae8fc;strokeColor=#6c8ebf;shadow=1;fontFamily=Helvetica;" vertex="1" parent="1">
          <mxGeometry x="420" y="160" width="110" height="50" as="geometry" />
        </mxCell>
        <mxCell id="hHttcmBeRxNO83OjTy9z-15" value="&lt;span&gt;Application&lt;/span&gt;" style="whiteSpace=wrap;html=1;aspect=fixed;fontSize=10;fillColor=#f5f5f5;fontColor=#000000;strokeColor=#666666;rounded=1;shadow=1;fontFamily=Helvetica;fontStyle=2" vertex="1" parent="1">
          <mxGeometry x="445" y="75" width="60" height="60" as="geometry" />
        </mxCell>
        <mxCell id="hHttcmBeRxNO83OjTy9z-16" style="edgeStyle=orthogonalEdgeStyle;rounded=0;orthogonalLoop=1;jettySize=auto;html=1;entryX=0;entryY=0.5;entryDx=0;entryDy=0;fillColor=#f5f5f5;strokeColor=#666666;endArrow=open;endFill=0;strokeWidth=1;endSize=9;dashed=1;shadow=1;flowAnimation=0;dashPattern=1 1;fontFamily=Helvetica;" edge="1" parent="1" source="hHttcmBeRxNO83OjTy9z-17" target="hHttcmBeRxNO83OjTy9z-13">
          <mxGeometry relative="1" as="geometry" />
        </mxCell>
        <mxCell id="hHttcmBeRxNO83OjTy9z-17" value="analogues, &lt;br&gt;ML,&lt;br&gt;..., algorithms" style="whiteSpace=wrap;html=1;aspect=fixed;fontSize=10;fillColor=#e1d5e7;strokeColor=#9673a6;rounded=1;shadow=1;fontFamily=Helvetica;fontStyle=2" vertex="1" parent="1">
          <mxGeometry x="330" y="155" width="60" height="60" as="geometry" />
        </mxCell>
        <mxCell id="hHttcmBeRxNO83OjTy9z-19" style="edgeStyle=orthogonalEdgeStyle;rounded=0;orthogonalLoop=1;jettySize=auto;html=1;entryX=0.5;entryY=0;entryDx=0;entryDy=0;strokeColor=#666666;strokeWidth=1;align=center;verticalAlign=middle;fontFamily=Helvetica;fontSize=11;fontColor=default;labelBackgroundColor=default;endArrow=open;endFill=0;endSize=9;fillColor=#f5f5f5;dashed=1;shadow=1;flowAnimation=0;dashPattern=1 1;" edge="1" parent="1" source="hHttcmBeRxNO83OjTy9z-18" target="hHttcmBeRxNO83OjTy9z-17">
          <mxGeometry relative="1" as="geometry" />
        </mxCell>
        <mxCell id="hHttcmBeRxNO83OjTy9z-18" value="Satellite data products" style="rounded=1;whiteSpace=wrap;html=1;arcSize=19;fontSize=11;fillColor=#f5f5f5;strokeColor=#666666;shadow=1;fontColor=#333333;fontFamily=Helvetica;fontStyle=2" vertex="1" parent="1">
          <mxGeometry x="320" y="75" width="80" height="50" as="geometry" />
        </mxCell>
        <mxCell id="hHttcmBeRxNO83OjTy9z-21" value="&lt;i&gt;Statistical-based evaluation&lt;/i&gt;" style="whiteSpace=wrap;html=1;aspect=fixed;fontSize=10;fillColor=#f5f5f5;fontColor=#000000;strokeColor=#666666;rounded=1;shadow=1;fontFamily=Helvetica;" vertex="1" parent="1">
          <mxGeometry x="442.5" y="235" width="65" height="65" as="geometry" />
        </mxCell>
      </root>
    </mxGraphModel>
  </diagram>
</mxfile>
